<svg width="142" height="43" viewBox="0 0 142 43" fill="none" xmlns="http://www.w3.org/2000/svg">
<path d="M11.66 41.8H11.76C11.8533 41.8 11.94 41.76 12.02 41.68C12.1 41.6 12.1667 41.5067 12.22 41.4C12.2867 41.2933 12.3333 41.18 12.36 41.06C12.3867 40.9267 12.4 40.8067 12.4 40.7V30.18L7.24 42.22L2.34 30.8V40.7C2.34 40.8067 2.35333 40.9267 2.38 41.06C2.40667 41.18 2.44667 41.2933 2.5 41.4C2.56667 41.5067 2.64 41.6 2.72 41.68C2.8 41.76 2.89333 41.8 3 41.8H3.1V42H0.92V41.8H1.02C1.11333 41.8 1.2 41.76 1.28 41.68C1.36 41.6 1.42667 41.5067 1.48 41.4C1.53333 41.2933 1.57333 41.18 1.6 41.06C1.62667 40.9267 1.64 40.8067 1.64 40.7V30.04C1.64 29.9467 1.62667 29.84 1.6 29.72C1.57333 29.6 1.53333 29.4867 1.48 29.38C1.42667 29.2733 1.36 29.1867 1.28 29.12C1.2 29.04 1.11333 29 1.02 29H0.92V28.8H2.96L7.6 39.74L12.24 28.8H14.5V29H14.4C14.2933 29 14.2 29.04 14.12 29.12C14.04 29.1867 13.9667 29.2733 13.9 29.38C13.8467 29.4867 13.8067 29.6 13.78 29.72C13.7533 29.84 13.74 29.9467 13.74 30.04V40.7C13.74 40.8067 13.7533 40.9267 13.78 41.06C13.8067 41.18 13.8467 41.2933 13.9 41.4C13.9667 41.5067 14.04 41.6 14.12 41.68C14.2 41.76 14.2933 41.8 14.4 41.8H14.5V42H11.66V41.8ZM17.7269 28.8H20.5869V29H20.4869C20.3935 29 20.3069 29.04 20.2269 29.12C20.1469 29.1867 20.0802 29.2733 20.0269 29.38C19.9735 29.4733 19.9269 29.5867 19.8869 29.72C19.8602 29.84 19.8469 29.9467 19.8469 30.04V40.7C19.8469 40.8067 19.8602 40.9267 19.8869 41.06C19.9135 41.18 19.9535 41.2933 20.0069 41.4C20.0735 41.5067 20.1402 41.6 20.2069 41.68C20.2869 41.76 20.3802 41.8 20.4869 41.8H20.5869V42H17.7269V41.8H17.8269C17.9335 41.8 18.0269 41.7667 18.1069 41.7C18.1869 41.62 18.2535 41.5267 18.3069 41.42C18.3735 41.3 18.4202 41.18 18.4469 41.06C18.4735 40.9267 18.4869 40.8067 18.4869 40.7V30.04C18.4869 29.9467 18.4735 29.84 18.4469 29.72C18.4202 29.6 18.3735 29.4867 18.3069 29.38C18.2535 29.2733 18.1869 29.1867 18.1069 29.12C18.0269 29.04 17.9335 29 17.8269 29H17.7269V28.8ZM31.8102 38.46C31.8102 39.1267 31.6768 39.7 31.4102 40.18C31.1435 40.6467 30.7968 41.0267 30.3702 41.32C29.9568 41.6133 29.4835 41.8267 28.9502 41.96C28.4302 42.0933 27.9102 42.16 27.3902 42.16C26.8568 42.16 26.3968 42.1067 26.0102 42C25.6235 41.8933 25.2702 41.7933 24.9502 41.7C24.7368 41.6333 24.5435 41.58 24.3702 41.54C24.1968 41.4867 24.0235 41.46 23.8502 41.46V39.18H24.0502C24.0502 39.6867 24.1768 40.0933 24.4302 40.4C24.6968 40.6933 25.0035 40.92 25.3502 41.08C25.6968 41.24 26.0435 41.3467 26.3902 41.4C26.7368 41.44 26.9902 41.46 27.1502 41.46C27.7235 41.46 28.2168 41.38 28.6302 41.22C29.0435 41.0467 29.3835 40.8267 29.6502 40.56C29.9168 40.28 30.1102 39.9733 30.2302 39.64C30.3635 39.3067 30.4302 38.9667 30.4302 38.62C30.4302 38.18 30.3368 37.8133 30.1502 37.52C29.9635 37.2133 29.7168 36.9467 29.4102 36.72C29.1168 36.4933 28.7768 36.3 28.3902 36.14C28.0035 35.98 27.6102 35.82 27.2102 35.66C26.7568 35.4867 26.3102 35.3067 25.8702 35.12C25.4302 34.9333 25.0368 34.7067 24.6902 34.44C24.3435 34.16 24.0635 33.8333 23.8502 33.46C23.6368 33.0733 23.5302 32.6 23.5302 32.04C23.5302 31.4533 23.6435 30.9467 23.8702 30.52C24.0968 30.08 24.3968 29.72 24.7702 29.44C25.1568 29.16 25.5902 28.9533 26.0702 28.82C26.5635 28.6733 27.0635 28.6 27.5702 28.6C27.9168 28.6 28.2435 28.6267 28.5502 28.68C28.8568 28.72 29.1502 28.7733 29.4302 28.84C29.6568 28.8933 29.8768 28.94 30.0902 28.98C30.3035 29.0067 30.5102 29.02 30.7102 29.02V31.08H30.5102C30.4835 30.3867 30.2102 29.92 29.6902 29.68C29.1702 29.4267 28.4502 29.3 27.5302 29.3C26.9968 29.3 26.5568 29.3933 26.2102 29.58C25.8768 29.7533 25.6102 29.9733 25.4102 30.24C25.2102 30.4933 25.0702 30.7733 24.9902 31.08C24.9235 31.3733 24.8902 31.6333 24.8902 31.86C24.8902 32.2333 24.9702 32.5533 25.1302 32.82C25.3035 33.0867 25.5302 33.32 25.8102 33.52C26.0902 33.72 26.4102 33.9 26.7702 34.06C27.1435 34.22 27.5302 34.3733 27.9302 34.52C28.3835 34.6933 28.8435 34.88 29.3102 35.08C29.7768 35.28 30.1902 35.5267 30.5502 35.82C30.9235 36.1133 31.2235 36.4733 31.4502 36.9C31.6902 37.3267 31.8102 37.8467 31.8102 38.46ZM42.1117 38.46C42.1117 39.1267 41.9784 39.7 41.7117 40.18C41.4451 40.6467 41.0984 41.0267 40.6717 41.32C40.2584 41.6133 39.7851 41.8267 39.2517 41.96C38.7317 42.0933 38.2117 42.16 37.6917 42.16C37.1584 42.16 36.6984 42.1067 36.3117 42C35.9251 41.8933 35.5717 41.7933 35.2517 41.7C35.0384 41.6333 34.8451 41.58 34.6717 41.54C34.4984 41.4867 34.3251 41.46 34.1517 41.46V39.18H34.3517C34.3517 39.6867 34.4784 40.0933 34.7317 40.4C34.9984 40.6933 35.3051 40.92 35.6517 41.08C35.9984 41.24 36.3451 41.3467 36.6917 41.4C37.0384 41.44 37.2917 41.46 37.4517 41.46C38.0251 41.46 38.5184 41.38 38.9317 41.22C39.3451 41.0467 39.6851 40.8267 39.9517 40.56C40.2184 40.28 40.4117 39.9733 40.5317 39.64C40.6651 39.3067 40.7317 38.9667 40.7317 38.62C40.7317 38.18 40.6384 37.8133 40.4517 37.52C40.2651 37.2133 40.0184 36.9467 39.7117 36.72C39.4184 36.4933 39.0784 36.3 38.6917 36.14C38.3051 35.98 37.9117 35.82 37.5117 35.66C37.0584 35.4867 36.6117 35.3067 36.1717 35.12C35.7317 34.9333 35.3384 34.7067 34.9917 34.44C34.6451 34.16 34.3651 33.8333 34.1517 33.46C33.9384 33.0733 33.8317 32.6 33.8317 32.04C33.8317 31.4533 33.9451 30.9467 34.1717 30.52C34.3984 30.08 34.6984 29.72 35.0717 29.44C35.4584 29.16 35.8917 28.9533 36.3717 28.82C36.8651 28.6733 37.3651 28.6 37.8717 28.6C38.2184 28.6 38.5451 28.6267 38.8517 28.68C39.1584 28.72 39.4517 28.7733 39.7317 28.84C39.9584 28.8933 40.1784 28.94 40.3917 28.98C40.6051 29.0067 40.8117 29.02 41.0117 29.02V31.08H40.8117C40.7851 30.3867 40.5117 29.92 39.9917 29.68C39.4717 29.4267 38.7517 29.3 37.8317 29.3C37.2984 29.3 36.8584 29.3933 36.5117 29.58C36.1784 29.7533 35.9117 29.9733 35.7117 30.24C35.5117 30.4933 35.3717 30.7733 35.2917 31.08C35.2251 31.3733 35.1917 31.6333 35.1917 31.86C35.1917 32.2333 35.2717 32.5533 35.4317 32.82C35.6051 33.0867 35.8317 33.32 36.1117 33.52C36.3917 33.72 36.7117 33.9 37.0717 34.06C37.4451 34.22 37.8317 34.3733 38.2317 34.52C38.6851 34.6933 39.1451 34.88 39.6117 35.08C40.0784 35.28 40.4917 35.5267 40.8517 35.82C41.2251 36.1133 41.5251 36.4733 41.7517 36.9C41.9917 37.3267 42.1117 37.8467 42.1117 38.46ZM45.0164 41.8H45.1164C45.2097 41.8 45.2964 41.76 45.3764 41.68C45.4564 41.6 45.5231 41.5067 45.5764 41.4C45.6431 41.2933 45.6897 41.18 45.7164 41.06C45.7431 40.9267 45.7564 40.8067 45.7564 40.7V30.06C45.7564 29.9667 45.7431 29.86 45.7164 29.74C45.6897 29.62 45.6431 29.5067 45.5764 29.4C45.5231 29.28 45.4497 29.1867 45.3564 29.12C45.2764 29.04 45.1831 29 45.0764 29H44.9764V28.8H48.2564C49.4964 28.8 50.4631 29.0733 51.1564 29.62C51.8631 30.1667 52.2164 30.8933 52.2164 31.8C52.2164 32.1867 52.1497 32.5333 52.0164 32.84C51.8831 33.1467 51.7097 33.42 51.4964 33.66C51.2964 33.9 51.0764 34.1067 50.8364 34.28C50.5964 34.44 50.3697 34.5733 50.1564 34.68C50.7164 34.7867 51.1831 34.9667 51.5564 35.22C51.9297 35.4733 52.2297 35.7667 52.4564 36.1C52.6964 36.42 52.8631 36.7667 52.9564 37.14C53.0497 37.5133 53.0964 37.88 53.0964 38.24C53.0964 38.9333 52.9697 39.52 52.7164 40C52.4631 40.4667 52.1231 40.8533 51.6964 41.16C51.2831 41.4533 50.8031 41.6667 50.2564 41.8C49.7231 41.9333 49.1697 42 48.5964 42H45.0164V41.8ZM51.7364 38.36C51.6297 37.3333 51.2831 36.54 50.6964 35.98C50.1097 35.42 49.2831 35.14 48.2164 35.14H47.0964V41.34H48.2564C49.3364 41.34 50.1831 41.1 50.7964 40.62C51.4231 40.1267 51.7364 39.4467 51.7364 38.58V38.36ZM50.9164 31.98C50.8764 31.2067 50.6031 30.5933 50.0964 30.14C49.6031 29.6867 48.9364 29.46 48.0964 29.46H47.0964V34.5H48.1364C48.6964 34.5 49.1497 34.4267 49.4964 34.28C49.8564 34.1333 50.1431 33.9467 50.3564 33.72C50.5697 33.48 50.7164 33.22 50.7964 32.94C50.8764 32.66 50.9164 32.3867 50.9164 32.12V31.98ZM56.0016 41.8H56.1016C56.2082 41.8 56.3016 41.7667 56.3816 41.7C56.4616 41.62 56.5282 41.5267 56.5816 41.42C56.6482 41.3133 56.6949 41.2 56.7216 41.08C56.7616 40.96 56.7816 40.8467 56.7816 40.74V30.04C56.7816 29.9467 56.7616 29.84 56.7216 29.72C56.6949 29.6 56.6482 29.4867 56.5816 29.38C56.5282 29.2733 56.4616 29.1867 56.3816 29.12C56.3016 29.04 56.2082 29 56.1016 29H56.0016V28.8H63.7016V30.66H63.5016C63.4749 30.3533 63.3549 30.0867 63.1416 29.86C62.9282 29.62 62.5949 29.5 62.1416 29.5H58.1216V34.56H61.4416C61.7482 34.56 62.0016 34.4667 62.2016 34.28C62.4149 34.0933 62.5216 33.8733 62.5216 33.62H62.7216V36.12H62.5216C62.5216 35.88 62.4216 35.6733 62.2216 35.5C62.0216 35.3267 61.7616 35.24 61.4416 35.24H58.1216V41.3H62.5016C62.7549 41.3 62.9749 41.24 63.1616 41.12C63.3482 41 63.5016 40.86 63.6216 40.7C63.7549 40.5267 63.8482 40.3467 63.9016 40.16C63.9682 39.96 64.0016 39.7933 64.0016 39.66H64.2016V42H56.0016V41.8ZM75.0086 38.46C75.0086 39.1267 74.8753 39.7 74.6086 40.18C74.3419 40.6467 73.9953 41.0267 73.5686 41.32C73.1553 41.6133 72.6819 41.8267 72.1486 41.96C71.6286 42.0933 71.1086 42.16 70.5886 42.16C70.0553 42.16 69.5953 42.1067 69.2086 42C68.8219 41.8933 68.4686 41.7933 68.1486 41.7C67.9353 41.6333 67.7419 41.58 67.5686 41.54C67.3953 41.4867 67.2219 41.46 67.0486 41.46V39.18H67.2486C67.2486 39.6867 67.3753 40.0933 67.6286 40.4C67.8953 40.6933 68.2019 40.92 68.5486 41.08C68.8953 41.24 69.2419 41.3467 69.5886 41.4C69.9353 41.44 70.1886 41.46 70.3486 41.46C70.9219 41.46 71.4153 41.38 71.8286 41.22C72.2419 41.0467 72.5819 40.8267 72.8486 40.56C73.1153 40.28 73.3086 39.9733 73.4286 39.64C73.5619 39.3067 73.6286 38.9667 73.6286 38.62C73.6286 38.18 73.5353 37.8133 73.3486 37.52C73.1619 37.2133 72.9153 36.9467 72.6086 36.72C72.3153 36.4933 71.9753 36.3 71.5886 36.14C71.2019 35.98 70.8086 35.82 70.4086 35.66C69.9553 35.4867 69.5086 35.3067 69.0686 35.12C68.6286 34.9333 68.2353 34.7067 67.8886 34.44C67.5419 34.16 67.2619 33.8333 67.0486 33.46C66.8353 33.0733 66.7286 32.6 66.7286 32.04C66.7286 31.4533 66.8419 30.9467 67.0686 30.52C67.2953 30.08 67.5953 29.72 67.9686 29.44C68.3553 29.16 68.7886 28.9533 69.2686 28.82C69.7619 28.6733 70.2619 28.6 70.7686 28.6C71.1153 28.6 71.4419 28.6267 71.7486 28.68C72.0553 28.72 72.3486 28.7733 72.6286 28.84C72.8553 28.8933 73.0753 28.94 73.2886 28.98C73.5019 29.0067 73.7086 29.02 73.9086 29.02V31.08H73.7086C73.6819 30.3867 73.4086 29.92 72.8886 29.68C72.3686 29.4267 71.6486 29.3 70.7286 29.3C70.1953 29.3 69.7553 29.3933 69.4086 29.58C69.0753 29.7533 68.8086 29.9733 68.6086 30.24C68.4086 30.4933 68.2686 30.7733 68.1886 31.08C68.1219 31.3733 68.0886 31.6333 68.0886 31.86C68.0886 32.2333 68.1686 32.5533 68.3286 32.82C68.5019 33.0867 68.7286 33.32 69.0086 33.52C69.2886 33.72 69.6086 33.9 69.9686 34.06C70.3419 34.22 70.7286 34.3733 71.1286 34.52C71.5819 34.6933 72.0419 34.88 72.5086 35.08C72.9753 35.28 73.3886 35.5267 73.7486 35.82C74.1219 36.1133 74.4219 36.4733 74.6486 36.9C74.8886 37.3267 75.0086 37.8467 75.0086 38.46ZM87.0886 41.8H87.1886V42H84.3286V41.8H84.4286C84.5353 41.8 84.6286 41.7667 84.7086 41.7C84.7886 41.62 84.8553 41.5267 84.9086 41.42C84.9753 41.3133 85.0219 41.2 85.0486 41.08C85.0753 40.96 85.0886 40.8467 85.0886 40.74V30.04C85.0886 29.9467 85.0753 29.84 85.0486 29.72C85.0219 29.6 84.9819 29.4867 84.9286 29.38C84.8753 29.2733 84.8019 29.1867 84.7086 29.12C84.6286 29.04 84.5353 29 84.4286 29H84.3286V28.8H92.0086V30.66H91.8086C91.8086 30.3533 91.7019 30.0867 91.4886 29.86C91.2886 29.62 90.9686 29.5 90.5286 29.5H86.4286V34.56H89.7486C90.0553 34.56 90.3086 34.4667 90.5086 34.28C90.7219 34.0933 90.8286 33.8733 90.8286 33.62H91.0286V36.12H90.8286C90.8286 35.88 90.7286 35.6733 90.5286 35.5C90.3286 35.3267 90.0686 35.24 89.7486 35.24H86.4286V40.74C86.4286 40.8467 86.4419 40.96 86.4686 41.08C86.4953 41.2 86.5353 41.3133 86.5886 41.42C86.6553 41.5267 86.7286 41.62 86.8086 41.7C86.8886 41.7667 86.9819 41.8 87.0886 41.8ZM94.7078 41.8H94.8078C94.9145 41.8 95.0078 41.7667 95.0878 41.7C95.1678 41.62 95.2345 41.5267 95.2878 41.42C95.3545 41.3133 95.4011 41.2 95.4278 41.08C95.4678 40.96 95.4878 40.8467 95.4878 40.74V30.04C95.4878 29.9467 95.4678 29.84 95.4278 29.72C95.4011 29.6 95.3545 29.4867 95.2878 29.38C95.2345 29.2733 95.1678 29.1867 95.0878 29.12C95.0078 29.04 94.9145 29 94.8078 29H94.7078V28.8H97.5878V29H97.4878C97.3811 29 97.2878 29.04 97.2078 29.12C97.1278 29.1867 97.0611 29.2733 97.0078 29.38C96.9545 29.4867 96.9078 29.6 96.8678 29.72C96.8411 29.84 96.8278 29.9467 96.8278 30.04V41.26H101.208C101.461 41.26 101.681 41.2 101.868 41.08C102.054 40.96 102.208 40.8133 102.328 40.64C102.461 40.4533 102.554 40.26 102.608 40.06C102.674 39.8467 102.708 39.6533 102.708 39.48H102.908V42H94.7078V41.8ZM117.82 29C117.553 29 117.327 29.1133 117.14 29.34C116.953 29.5667 116.827 29.8133 116.76 30.08L113.12 42.08L110 32.24L106.88 42.1L103.22 30.1C103.153 29.8467 103.033 29.6 102.86 29.36C102.7 29.12 102.513 29 102.3 29V28.8H105.14V29C104.967 29 104.82 29.0733 104.7 29.22C104.593 29.3533 104.54 29.5267 104.54 29.74C104.54 29.8067 104.553 29.8933 104.58 30L107.18 38.48L110.36 28.68L113.42 38.46L116.06 30C116.06 29.9733 116.067 29.92 116.08 29.84C116.107 29.7467 116.12 29.6733 116.12 29.62C116.12 29.4333 116.067 29.2867 115.96 29.18C115.853 29.06 115.747 29 115.64 29V28.8H117.82V29ZM122.933 41.8H123.033V42H120.213V41.8H120.313C120.407 41.8 120.493 41.76 120.573 41.68C120.653 41.6 120.72 41.5067 120.773 41.4C120.84 41.2933 120.887 41.18 120.913 41.06C120.94 40.9267 120.953 40.8067 120.953 40.7V30.04C120.953 29.9467 120.94 29.84 120.913 29.72C120.887 29.6 120.84 29.4867 120.773 29.38C120.72 29.2733 120.653 29.1867 120.573 29.12C120.493 29.04 120.407 29 120.313 29H120.213V28.8H123.693C125.027 28.8 126.053 29.06 126.773 29.58C127.507 30.1 127.873 30.8667 127.873 31.88C127.873 32.3867 127.787 32.8333 127.613 33.22C127.453 33.5933 127.233 33.92 126.953 34.2C126.673 34.4667 126.34 34.6867 125.953 34.86C125.58 35.02 125.18 35.14 124.753 35.22L126.193 37.42C126.54 37.9533 126.893 38.48 127.253 39C127.613 39.5067 127.967 40.0333 128.313 40.58C128.407 40.7133 128.507 40.8533 128.613 41C128.733 41.1467 128.853 41.28 128.973 41.4C129.107 41.52 129.24 41.62 129.373 41.7C129.52 41.7667 129.667 41.8 129.813 41.8V42H128.953C128.42 42 127.98 41.8733 127.633 41.62C127.3 41.3533 127.02 41.0467 126.793 40.7C126.193 39.82 125.593 38.9267 124.993 38.02C124.407 37.1133 123.82 36.22 123.233 35.34C123.087 35.3267 122.927 35.3133 122.753 35.3C122.593 35.2733 122.44 35.2467 122.293 35.22V40.7C122.293 40.8067 122.307 40.9267 122.333 41.06C122.36 41.18 122.4 41.2933 122.453 41.4C122.52 41.5067 122.587 41.6 122.653 41.68C122.733 41.76 122.827 41.8 122.933 41.8ZM122.293 29.48V34.56H122.393C122.5 34.5733 122.667 34.5867 122.893 34.6C123.133 34.6 123.427 34.6 123.773 34.6C124.053 34.6 124.347 34.56 124.653 34.48C124.973 34.3867 125.267 34.24 125.533 34.04C125.813 33.8267 126.04 33.5533 126.213 33.22C126.4 32.8867 126.493 32.4667 126.493 31.96C126.493 31.4533 126.393 31.04 126.193 30.72C126.007 30.4 125.74 30.1467 125.393 29.96C125.06 29.7733 124.653 29.6467 124.173 29.58C123.693 29.5133 123.167 29.48 122.593 29.48H122.293ZM140.314 38.46C140.314 39.1267 140.181 39.7 139.914 40.18C139.647 40.6467 139.301 41.0267 138.874 41.32C138.461 41.6133 137.987 41.8267 137.454 41.96C136.934 42.0933 136.414 42.16 135.894 42.16C135.361 42.16 134.901 42.1067 134.514 42C134.127 41.8933 133.774 41.7933 133.454 41.7C133.241 41.6333 133.047 41.58 132.874 41.54C132.701 41.4867 132.527 41.46 132.354 41.46V39.18H132.554C132.554 39.6867 132.681 40.0933 132.934 40.4C133.201 40.6933 133.507 40.92 133.854 41.08C134.201 41.24 134.547 41.3467 134.894 41.4C135.241 41.44 135.494 41.46 135.654 41.46C136.227 41.46 136.721 41.38 137.134 41.22C137.547 41.0467 137.887 40.8267 138.154 40.56C138.421 40.28 138.614 39.9733 138.734 39.64C138.867 39.3067 138.934 38.9667 138.934 38.62C138.934 38.18 138.841 37.8133 138.654 37.52C138.467 37.2133 138.221 36.9467 137.914 36.72C137.621 36.4933 137.281 36.3 136.894 36.14C136.507 35.98 136.114 35.82 135.714 35.66C135.261 35.4867 134.814 35.3067 134.374 35.12C133.934 34.9333 133.541 34.7067 133.194 34.44C132.847 34.16 132.567 33.8333 132.354 33.46C132.141 33.0733 132.034 32.6 132.034 32.04C132.034 31.4533 132.147 30.9467 132.374 30.52C132.601 30.08 132.901 29.72 133.274 29.44C133.661 29.16 134.094 28.9533 134.574 28.82C135.067 28.6733 135.567 28.6 136.074 28.6C136.421 28.6 136.747 28.6267 137.054 28.68C137.361 28.72 137.654 28.7733 137.934 28.84C138.161 28.8933 138.381 28.94 138.594 28.98C138.807 29.0067 139.014 29.02 139.214 29.02V31.08H139.014C138.987 30.3867 138.714 29.92 138.194 29.68C137.674 29.4267 136.954 29.3 136.034 29.3C135.501 29.3 135.061 29.3933 134.714 29.58C134.381 29.7533 134.114 29.9733 133.914 30.24C133.714 30.4933 133.574 30.7733 133.494 31.08C133.427 31.3733 133.394 31.6333 133.394 31.86C133.394 32.2333 133.474 32.5533 133.634 32.82C133.807 33.0867 134.034 33.32 134.314 33.52C134.594 33.72 134.914 33.9 135.274 34.06C135.647 34.22 136.034 34.3733 136.434 34.52C136.887 34.6933 137.347 34.88 137.814 35.08C138.281 35.28 138.694 35.5267 139.054 35.82C139.427 36.1133 139.727 36.4733 139.954 36.9C140.194 37.3267 140.314 37.8467 140.314 38.46Z" fill="white"/>
<path d="M73.7534 9C73.7534 11.3296 72.6198 13.4742 71.4418 15.0666C70.857 15.8573 70.2713 16.498 69.8322 16.9406C69.6794 17.0947 69.5446 17.2245 69.4342 17.3278C69.3239 17.2245 69.1891 17.0947 69.0362 16.9406C68.5971 16.498 68.0115 15.8573 67.4266 15.0666C66.2486 13.4742 65.115 11.3296 65.115 9C65.115 6.67044 66.2486 4.52577 67.4266 2.93339C68.0115 2.14273 68.5971 1.502 69.0362 1.0594C69.1891 0.905279 69.3239 0.775524 69.4342 0.672181C69.5446 0.775524 69.6794 0.905279 69.8322 1.0594C70.2713 1.502 70.857 2.14273 71.4418 2.93339C72.6198 4.52577 73.7534 6.67044 73.7534 9Z" stroke="white"/>
<path d="M67.5571 8.77945C69.018 10.4467 69.5896 12.8775 69.7815 14.9616C69.8766 15.9945 69.8764 16.9202 69.8523 17.5874C69.843 17.8431 69.8303 18.0602 69.8182 18.23C69.6694 18.2438 69.4792 18.2584 69.2551 18.2689C68.6705 18.2964 67.8593 18.2967 66.9543 18.1882C65.1282 17.9692 62.9983 17.3167 61.5374 15.6495C60.0765 13.9822 59.5048 11.5515 59.3129 9.46735C59.2179 8.43447 59.2181 7.50877 59.2422 6.84152C59.2514 6.58577 59.2642 6.36869 59.2763 6.1989C59.425 6.18509 59.6152 6.17057 59.8393 6.16002C60.424 6.13249 61.2351 6.13224 62.1401 6.24077C63.9663 6.45975 66.0962 7.11217 67.5571 8.77945Z" stroke="white"/>
<path d="M72.6492 8.77945C71.1883 10.4467 70.6167 12.8775 70.4248 14.9616C70.3297 15.9945 70.3299 16.9202 70.354 17.5874C70.3633 17.8431 70.376 18.0602 70.3881 18.23C70.5369 18.2438 70.7271 18.2584 70.9512 18.2689C71.5358 18.2964 72.347 18.2967 73.252 18.1882C75.0781 17.9692 77.208 17.3167 78.6689 15.6495C80.1298 13.9822 80.7015 11.5515 80.8934 9.46735C80.9884 8.43447 80.9882 7.50877 80.9641 6.84152C80.9549 6.58577 80.9421 6.36869 80.93 6.1989C80.7813 6.18509 80.5911 6.17057 80.367 6.16002C79.7823 6.13249 78.9712 6.13224 78.0662 6.24077C76.24 6.45975 74.1101 7.11217 72.6492 8.77945Z" stroke="white"/>
<path d="M48 12H3" stroke="white"/>
<path d="M137 12L91 12" stroke="white"/>
</svg>
