<svg width="248" height="75" viewBox="0 0 248 75" fill="none" xmlns="http://www.w3.org/2000/svg">
<path d="M20.405 73.65H20.58C20.7433 73.65 20.895 73.58 21.035 73.44C21.175 73.3 21.2917 73.1367 21.385 72.95C21.5017 72.7633 21.5833 72.565 21.63 72.355C21.6767 72.1217 21.7 71.9117 21.7 71.725V53.315L12.67 74.385L4.095 54.4V71.725C4.095 71.9117 4.11833 72.1217 4.165 72.355C4.21167 72.565 4.28167 72.7633 4.375 72.95C4.49167 73.1367 4.62 73.3 4.76 73.44C4.9 73.58 5.06333 73.65 5.25 73.65H5.425V74H1.61V73.65H1.785C1.94833 73.65 2.1 73.58 2.24 73.44C2.38 73.3 2.49667 73.1367 2.59 72.95C2.68333 72.7633 2.75333 72.565 2.8 72.355C2.84667 72.1217 2.87 71.9117 2.87 71.725V53.07C2.87 52.9067 2.84667 52.72 2.8 52.51C2.75333 52.3 2.68333 52.1017 2.59 51.915C2.49667 51.7283 2.38 51.5767 2.24 51.46C2.1 51.32 1.94833 51.25 1.785 51.25H1.61V50.9H5.18L13.3 70.045L21.42 50.9H25.375V51.25H25.2C25.0133 51.25 24.85 51.32 24.71 51.46C24.57 51.5767 24.4417 51.7283 24.325 51.915C24.2317 52.1017 24.1617 52.3 24.115 52.51C24.0683 52.72 24.045 52.9067 24.045 53.07V71.725C24.045 71.9117 24.0683 72.1217 24.115 72.355C24.1617 72.565 24.2317 72.7633 24.325 72.95C24.4417 73.1367 24.57 73.3 24.71 73.44C24.85 73.58 25.0133 73.65 25.2 73.65H25.375V74H20.405V73.65ZM31.022 50.9H36.027V51.25H35.852C35.6887 51.25 35.537 51.32 35.397 51.46C35.257 51.5767 35.1404 51.7283 35.047 51.915C34.9537 52.0783 34.872 52.2767 34.802 52.51C34.7554 52.72 34.732 52.9067 34.732 53.07V71.725C34.732 71.9117 34.7554 72.1217 34.802 72.355C34.8487 72.565 34.9187 72.7633 35.012 72.95C35.1287 73.1367 35.2454 73.3 35.362 73.44C35.502 73.58 35.6654 73.65 35.852 73.65H36.027V74H31.022V73.65H31.197C31.3837 73.65 31.547 73.5917 31.687 73.475C31.827 73.335 31.9437 73.1717 32.037 72.985C32.1537 72.775 32.2354 72.565 32.282 72.355C32.3287 72.1217 32.352 71.9117 32.352 71.725V53.07C32.352 52.9067 32.3287 52.72 32.282 52.51C32.2354 52.3 32.1537 52.1017 32.037 51.915C31.9437 51.7283 31.827 51.5767 31.687 51.46C31.547 51.32 31.3837 51.25 31.197 51.25H31.022V50.9ZM55.6678 67.805C55.6678 68.9717 55.4344 69.975 54.9678 70.815C54.5011 71.6317 53.8944 72.2967 53.1478 72.81C52.4244 73.3233 51.5961 73.6967 50.6628 73.93C49.7528 74.1633 48.8428 74.28 47.9328 74.28C46.9994 74.28 46.1944 74.1867 45.5178 74C44.8411 73.8133 44.2228 73.6383 43.6628 73.475C43.2894 73.3583 42.9511 73.265 42.6478 73.195C42.3444 73.1017 42.0411 73.055 41.7378 73.055V69.065H42.0878C42.0878 69.9517 42.3094 70.6633 42.7528 71.2C43.2194 71.7133 43.7561 72.11 44.3628 72.39C44.9694 72.67 45.5761 72.8567 46.1828 72.95C46.7894 73.02 47.2328 73.055 47.5128 73.055C48.5161 73.055 49.3794 72.915 50.1028 72.635C50.8261 72.3317 51.4211 71.9467 51.8878 71.48C52.3544 70.99 52.6928 70.4533 52.9028 69.87C53.1361 69.2867 53.2528 68.6917 53.2528 68.085C53.2528 67.315 53.0894 66.6733 52.7628 66.16C52.4361 65.6233 52.0044 65.1567 51.4678 64.76C50.9544 64.3633 50.3594 64.025 49.6828 63.745C49.0061 63.465 48.3178 63.185 47.6178 62.905C46.8244 62.6017 46.0428 62.2867 45.2728 61.96C44.5028 61.6333 43.8144 61.2367 43.2078 60.77C42.6011 60.28 42.1111 59.7083 41.7378 59.055C41.3644 58.3783 41.1778 57.55 41.1778 56.57C41.1778 55.5433 41.3761 54.6567 41.7728 53.91C42.1694 53.14 42.6944 52.51 43.3478 52.02C44.0244 51.53 44.7828 51.1683 45.6228 50.935C46.4861 50.6783 47.3611 50.55 48.2478 50.55C48.8544 50.55 49.4261 50.5967 49.9628 50.69C50.4994 50.76 51.0128 50.8533 51.5028 50.97C51.8994 51.0633 52.2844 51.145 52.6578 51.215C53.0311 51.2617 53.3928 51.285 53.7428 51.285V54.89H53.3928C53.3461 53.6767 52.8678 52.86 51.9578 52.44C51.0478 51.9967 49.7878 51.775 48.1778 51.775C47.2444 51.775 46.4744 51.9383 45.8678 52.265C45.2844 52.5683 44.8178 52.9533 44.4678 53.42C44.1178 53.8633 43.8728 54.3533 43.7328 54.89C43.6161 55.4033 43.5578 55.8583 43.5578 56.255C43.5578 56.9083 43.6978 57.4683 43.9778 57.935C44.2811 58.4017 44.6778 58.81 45.1678 59.16C45.6578 59.51 46.2178 59.825 46.8478 60.105C47.5011 60.385 48.1778 60.6533 48.8778 60.91C49.6711 61.2133 50.4761 61.54 51.2928 61.89C52.1094 62.24 52.8328 62.6717 53.4628 63.185C54.1161 63.6983 54.6411 64.3283 55.0378 65.075C55.4578 65.8217 55.6678 66.7317 55.6678 67.805ZM73.6955 67.805C73.6955 68.9717 73.4622 69.975 72.9955 70.815C72.5288 71.6317 71.9222 72.2967 71.1755 72.81C70.4522 73.3233 69.6238 73.6967 68.6905 73.93C67.7805 74.1633 66.8705 74.28 65.9605 74.28C65.0272 74.28 64.2222 74.1867 63.5455 74C62.8688 73.8133 62.2505 73.6383 61.6905 73.475C61.3172 73.3583 60.9788 73.265 60.6755 73.195C60.3722 73.1017 60.0688 73.055 59.7655 73.055V69.065H60.1155C60.1155 69.9517 60.3372 70.6633 60.7805 71.2C61.2472 71.7133 61.7838 72.11 62.3905 72.39C62.9972 72.67 63.6038 72.8567 64.2105 72.95C64.8172 73.02 65.2605 73.055 65.5405 73.055C66.5438 73.055 67.4072 72.915 68.1305 72.635C68.8538 72.3317 69.4488 71.9467 69.9155 71.48C70.3822 70.99 70.7205 70.4533 70.9305 69.87C71.1638 69.2867 71.2805 68.6917 71.2805 68.085C71.2805 67.315 71.1172 66.6733 70.7905 66.16C70.4638 65.6233 70.0322 65.1567 69.4955 64.76C68.9822 64.3633 68.3872 64.025 67.7105 63.745C67.0338 63.465 66.3455 63.185 65.6455 62.905C64.8522 62.6017 64.0705 62.2867 63.3005 61.96C62.5305 61.6333 61.8422 61.2367 61.2355 60.77C60.6288 60.28 60.1388 59.7083 59.7655 59.055C59.3922 58.3783 59.2055 57.55 59.2055 56.57C59.2055 55.5433 59.4038 54.6567 59.8005 53.91C60.1972 53.14 60.7222 52.51 61.3755 52.02C62.0522 51.53 62.8105 51.1683 63.6505 50.935C64.5138 50.6783 65.3888 50.55 66.2755 50.55C66.8822 50.55 67.4538 50.5967 67.9905 50.69C68.5272 50.76 69.0405 50.8533 69.5305 50.97C69.9272 51.0633 70.3122 51.145 70.6855 51.215C71.0588 51.2617 71.4205 51.285 71.7705 51.285V54.89H71.4205C71.3738 53.6767 70.8955 52.86 69.9855 52.44C69.0755 51.9967 67.8155 51.775 66.2055 51.775C65.2722 51.775 64.5022 51.9383 63.8955 52.265C63.3122 52.5683 62.8455 52.9533 62.4955 53.42C62.1455 53.8633 61.9005 54.3533 61.7605 54.89C61.6438 55.4033 61.5855 55.8583 61.5855 56.255C61.5855 56.9083 61.7255 57.4683 62.0055 57.935C62.3088 58.4017 62.7055 58.81 63.1955 59.16C63.6855 59.51 64.2455 59.825 64.8755 60.105C65.5288 60.385 66.2055 60.6533 66.9055 60.91C67.6988 61.2133 68.5038 61.54 69.3205 61.89C70.1372 62.24 70.8605 62.6717 71.4905 63.185C72.1438 63.6983 72.6688 64.3283 73.0655 65.075C73.4855 65.8217 73.6955 66.7317 73.6955 67.805ZM78.7787 73.65H78.9537C79.117 73.65 79.2687 73.58 79.4087 73.44C79.5487 73.3 79.6654 73.1367 79.7587 72.95C79.8754 72.7633 79.957 72.565 80.0037 72.355C80.0504 72.1217 80.0737 71.9117 80.0737 71.725V53.105C80.0737 52.9417 80.0504 52.755 80.0037 52.545C79.957 52.335 79.8754 52.1367 79.7587 51.95C79.6654 51.74 79.537 51.5767 79.3737 51.46C79.2337 51.32 79.0704 51.25 78.8837 51.25H78.7087V50.9H84.4487C86.6187 50.9 88.3104 51.3783 89.5237 52.335C90.7604 53.2917 91.3787 54.5633 91.3787 56.15C91.3787 56.8267 91.262 57.4333 91.0287 57.97C90.7954 58.5067 90.492 58.985 90.1187 59.405C89.7687 59.825 89.3837 60.1867 88.9637 60.49C88.5437 60.77 88.147 61.0033 87.7737 61.19C88.7537 61.3767 89.5704 61.6917 90.2237 62.135C90.877 62.5783 91.402 63.0917 91.7987 63.675C92.2187 64.235 92.5104 64.8417 92.6737 65.495C92.837 66.1483 92.9187 66.79 92.9187 67.42C92.9187 68.6333 92.697 69.66 92.2537 70.5C91.8104 71.3167 91.2154 71.9933 90.4687 72.53C89.7454 73.0433 88.9054 73.4167 87.9487 73.65C87.0154 73.8833 86.047 74 85.0437 74H78.7787V73.65ZM90.5387 67.63C90.352 65.8333 89.7454 64.445 88.7187 63.465C87.692 62.485 86.2454 61.995 84.3787 61.995H82.4187V72.845H84.4487C86.3387 72.845 87.8204 72.425 88.8937 71.585C89.9904 70.7217 90.5387 69.5317 90.5387 68.015V67.63ZM89.1037 56.465C89.0337 55.1117 88.5554 54.0383 87.6687 53.245C86.8054 52.4517 85.6387 52.055 84.1687 52.055H82.4187V60.875H84.2387C85.2187 60.875 86.012 60.7467 86.6187 60.49C87.2487 60.2333 87.7504 59.9067 88.1237 59.51C88.497 59.09 88.7537 58.635 88.8937 58.145C89.0337 57.655 89.1037 57.1767 89.1037 56.71V56.465ZM98.0027 73.65H98.1777C98.3644 73.65 98.5277 73.5917 98.6677 73.475C98.8077 73.335 98.9244 73.1717 99.0177 72.985C99.1344 72.7983 99.2161 72.6 99.2627 72.39C99.3327 72.18 99.3677 71.9817 99.3677 71.795V53.07C99.3677 52.9067 99.3327 52.72 99.2627 52.51C99.2161 52.3 99.1344 52.1017 99.0177 51.915C98.9244 51.7283 98.8077 51.5767 98.6677 51.46C98.5277 51.32 98.3644 51.25 98.1777 51.25H98.0027V50.9H111.478V54.155H111.128C111.081 53.6183 110.871 53.1517 110.498 52.755C110.124 52.335 109.541 52.125 108.748 52.125H101.713V60.98H107.523C108.059 60.98 108.503 60.8167 108.853 60.49C109.226 60.1633 109.413 59.7783 109.413 59.335H109.763V63.71H109.413C109.413 63.29 109.238 62.9283 108.888 62.625C108.538 62.3217 108.083 62.17 107.523 62.17H101.713V72.775H109.378C109.821 72.775 110.206 72.67 110.533 72.46C110.859 72.25 111.128 72.005 111.338 71.725C111.571 71.4217 111.734 71.1067 111.828 70.78C111.944 70.43 112.003 70.1383 112.003 69.905H112.353V74H98.0027V73.65ZM131.265 67.805C131.265 68.9717 131.032 69.975 130.565 70.815C130.098 71.6317 129.492 72.2967 128.745 72.81C128.022 73.3233 127.193 73.6967 126.26 73.93C125.35 74.1633 124.44 74.28 123.53 74.28C122.597 74.28 121.792 74.1867 121.115 74C120.438 73.8133 119.82 73.6383 119.26 73.475C118.887 73.3583 118.548 73.265 118.245 73.195C117.942 73.1017 117.638 73.055 117.335 73.055V69.065H117.685C117.685 69.9517 117.907 70.6633 118.35 71.2C118.817 71.7133 119.353 72.11 119.96 72.39C120.567 72.67 121.173 72.8567 121.78 72.95C122.387 73.02 122.83 73.055 123.11 73.055C124.113 73.055 124.977 72.915 125.7 72.635C126.423 72.3317 127.018 71.9467 127.485 71.48C127.952 70.99 128.29 70.4533 128.5 69.87C128.733 69.2867 128.85 68.6917 128.85 68.085C128.85 67.315 128.687 66.6733 128.36 66.16C128.033 65.6233 127.602 65.1567 127.065 64.76C126.552 64.3633 125.957 64.025 125.28 63.745C124.603 63.465 123.915 63.185 123.215 62.905C122.422 62.6017 121.64 62.2867 120.87 61.96C120.1 61.6333 119.412 61.2367 118.805 60.77C118.198 60.28 117.708 59.7083 117.335 59.055C116.962 58.3783 116.775 57.55 116.775 56.57C116.775 55.5433 116.973 54.6567 117.37 53.91C117.767 53.14 118.292 52.51 118.945 52.02C119.622 51.53 120.38 51.1683 121.22 50.935C122.083 50.6783 122.958 50.55 123.845 50.55C124.452 50.55 125.023 50.5967 125.56 50.69C126.097 50.76 126.61 50.8533 127.1 50.97C127.497 51.0633 127.882 51.145 128.255 51.215C128.628 51.2617 128.99 51.285 129.34 51.285V54.89H128.99C128.943 53.6767 128.465 52.86 127.555 52.44C126.645 51.9967 125.385 51.775 123.775 51.775C122.842 51.775 122.072 51.9383 121.465 52.265C120.882 52.5683 120.415 52.9533 120.065 53.42C119.715 53.8633 119.47 54.3533 119.33 54.89C119.213 55.4033 119.155 55.8583 119.155 56.255C119.155 56.9083 119.295 57.4683 119.575 57.935C119.878 58.4017 120.275 58.81 120.765 59.16C121.255 59.51 121.815 59.825 122.445 60.105C123.098 60.385 123.775 60.6533 124.475 60.91C125.268 61.2133 126.073 61.54 126.89 61.89C127.707 62.24 128.43 62.6717 129.06 63.185C129.713 63.6983 130.238 64.3283 130.635 65.075C131.055 65.8217 131.265 66.7317 131.265 67.805ZM152.405 73.65H152.58V74H147.575V73.65H147.75C147.937 73.65 148.1 73.5917 148.24 73.475C148.38 73.335 148.497 73.1717 148.59 72.985C148.707 72.7983 148.788 72.6 148.835 72.39C148.882 72.18 148.905 71.9817 148.905 71.795V53.07C148.905 52.9067 148.882 52.72 148.835 52.51C148.788 52.3 148.718 52.1017 148.625 51.915C148.532 51.7283 148.403 51.5767 148.24 51.46C148.1 51.32 147.937 51.25 147.75 51.25H147.575V50.9H161.015V54.155H160.665C160.665 53.6183 160.478 53.1517 160.105 52.755C159.755 52.335 159.195 52.125 158.425 52.125H151.25V60.98H157.06C157.597 60.98 158.04 60.8167 158.39 60.49C158.763 60.1633 158.95 59.7783 158.95 59.335H159.3V63.71H158.95C158.95 63.29 158.775 62.9283 158.425 62.625C158.075 62.3217 157.62 62.17 157.06 62.17H151.25V71.795C151.25 71.9817 151.273 72.18 151.32 72.39C151.367 72.6 151.437 72.7983 151.53 72.985C151.647 73.1717 151.775 73.335 151.915 73.475C152.055 73.5917 152.218 73.65 152.405 73.65ZM165.739 73.65H165.914C166.1 73.65 166.264 73.5917 166.404 73.475C166.544 73.335 166.66 73.1717 166.754 72.985C166.87 72.7983 166.952 72.6 166.999 72.39C167.069 72.18 167.104 71.9817 167.104 71.795V53.07C167.104 52.9067 167.069 52.72 166.999 52.51C166.952 52.3 166.87 52.1017 166.754 51.915C166.66 51.7283 166.544 51.5767 166.404 51.46C166.264 51.32 166.1 51.25 165.914 51.25H165.739V50.9H170.779V51.25H170.604C170.417 51.25 170.254 51.32 170.114 51.46C169.974 51.5767 169.857 51.7283 169.764 51.915C169.67 52.1017 169.589 52.3 169.519 52.51C169.472 52.72 169.449 52.9067 169.449 53.07V72.705H177.114C177.557 72.705 177.942 72.6 178.269 72.39C178.595 72.18 178.864 71.9233 179.074 71.62C179.307 71.2933 179.47 70.955 179.564 70.605C179.68 70.2317 179.739 69.8933 179.739 69.59H180.089V74H165.739V73.65ZM206.185 51.25C205.718 51.25 205.322 51.4483 204.995 51.845C204.668 52.2417 204.447 52.6733 204.33 53.14L197.96 74.14L192.5 56.92L187.04 74.175L180.635 53.175C180.518 52.7317 180.308 52.3 180.005 51.88C179.725 51.46 179.398 51.25 179.025 51.25V50.9H183.995V51.25C183.692 51.25 183.435 51.3783 183.225 51.635C183.038 51.8683 182.945 52.1717 182.945 52.545C182.945 52.6617 182.968 52.8133 183.015 53L187.565 67.84L193.13 50.69L198.485 67.805L203.105 53C203.105 52.9533 203.117 52.86 203.14 52.72C203.187 52.5567 203.21 52.4283 203.21 52.335C203.21 52.0083 203.117 51.7517 202.93 51.565C202.743 51.355 202.557 51.25 202.37 51.25V50.9H206.185V51.25ZM215.133 73.65H215.308V74H210.373V73.65H210.548C210.712 73.65 210.863 73.58 211.003 73.44C211.143 73.3 211.26 73.1367 211.353 72.95C211.47 72.7633 211.552 72.565 211.598 72.355C211.645 72.1217 211.668 71.9117 211.668 71.725V53.07C211.668 52.9067 211.645 52.72 211.598 52.51C211.552 52.3 211.47 52.1017 211.353 51.915C211.26 51.7283 211.143 51.5767 211.003 51.46C210.863 51.32 210.712 51.25 210.548 51.25H210.373V50.9H216.463C218.797 50.9 220.593 51.355 221.853 52.265C223.137 53.175 223.778 54.5167 223.778 56.29C223.778 57.1767 223.627 57.9583 223.323 58.635C223.043 59.2883 222.658 59.86 222.168 60.35C221.678 60.8167 221.095 61.2017 220.418 61.505C219.765 61.785 219.065 61.995 218.318 62.135L220.838 65.985C221.445 66.9183 222.063 67.84 222.693 68.75C223.323 69.6367 223.942 70.5583 224.548 71.515C224.712 71.7483 224.887 71.9933 225.073 72.25C225.283 72.5067 225.493 72.74 225.703 72.95C225.937 73.16 226.17 73.335 226.403 73.475C226.66 73.5917 226.917 73.65 227.173 73.65V74H225.668C224.735 74 223.965 73.7783 223.358 73.335C222.775 72.8683 222.285 72.3317 221.888 71.725C220.838 70.185 219.788 68.6217 218.738 67.035C217.712 65.4483 216.685 63.885 215.658 62.345C215.402 62.3217 215.122 62.2983 214.818 62.275C214.538 62.2283 214.27 62.1817 214.013 62.135V71.725C214.013 71.9117 214.037 72.1217 214.083 72.355C214.13 72.565 214.2 72.7633 214.293 72.95C214.41 73.1367 214.527 73.3 214.643 73.44C214.783 73.58 214.947 73.65 215.133 73.65ZM214.013 52.09V60.98H214.188C214.375 61.0033 214.667 61.0267 215.063 61.05C215.483 61.05 215.997 61.05 216.603 61.05C217.093 61.05 217.607 60.98 218.143 60.84C218.703 60.6767 219.217 60.42 219.683 60.07C220.173 59.6967 220.57 59.2183 220.873 58.635C221.2 58.0517 221.363 57.3167 221.363 56.43C221.363 55.5433 221.188 54.82 220.838 54.26C220.512 53.7 220.045 53.2567 219.438 52.93C218.855 52.6033 218.143 52.3817 217.303 52.265C216.463 52.1483 215.542 52.09 214.538 52.09H214.013ZM245.55 67.805C245.55 68.9717 245.316 69.975 244.85 70.815C244.383 71.6317 243.776 72.2967 243.03 72.81C242.306 73.3233 241.478 73.6967 240.545 73.93C239.635 74.1633 238.725 74.28 237.815 74.28C236.881 74.28 236.076 74.1867 235.4 74C234.723 73.8133 234.105 73.6383 233.545 73.475C233.171 73.3583 232.833 73.265 232.53 73.195C232.226 73.1017 231.923 73.055 231.62 73.055V69.065H231.97C231.97 69.9517 232.191 70.6633 232.635 71.2C233.101 71.7133 233.638 72.11 234.245 72.39C234.851 72.67 235.458 72.8567 236.065 72.95C236.671 73.02 237.115 73.055 237.395 73.055C238.398 73.055 239.261 72.915 239.985 72.635C240.708 72.3317 241.303 71.9467 241.77 71.48C242.236 70.99 242.575 70.4533 242.785 69.87C243.018 69.2867 243.135 68.6917 243.135 68.085C243.135 67.315 242.971 66.6733 242.645 66.16C242.318 65.6233 241.886 65.1567 241.35 64.76C240.836 64.3633 240.241 64.025 239.565 63.745C238.888 63.465 238.2 63.185 237.5 62.905C236.706 62.6017 235.925 62.2867 235.155 61.96C234.385 61.6333 233.696 61.2367 233.09 60.77C232.483 60.28 231.993 59.7083 231.62 59.055C231.246 58.3783 231.06 57.55 231.06 56.57C231.06 55.5433 231.258 54.6567 231.655 53.91C232.051 53.14 232.576 52.51 233.23 52.02C233.906 51.53 234.665 51.1683 235.505 50.935C236.368 50.6783 237.243 50.55 238.13 50.55C238.736 50.55 239.308 50.5967 239.845 50.69C240.381 50.76 240.895 50.8533 241.385 50.97C241.781 51.0633 242.166 51.145 242.54 51.215C242.913 51.2617 243.275 51.285 243.625 51.285V54.89H243.275C243.228 53.6767 242.75 52.86 241.84 52.44C240.93 51.9967 239.67 51.775 238.06 51.775C237.126 51.775 236.356 51.9383 235.75 52.265C235.166 52.5683 234.7 52.9533 234.35 53.42C234 53.8633 233.755 54.3533 233.615 54.89C233.498 55.4033 233.44 55.8583 233.44 56.255C233.44 56.9083 233.58 57.4683 233.86 57.935C234.163 58.4017 234.56 58.81 235.05 59.16C235.54 59.51 236.1 59.825 236.73 60.105C237.383 60.385 238.06 60.6533 238.76 60.91C239.553 61.2133 240.358 61.54 241.175 61.89C241.991 62.24 242.715 62.6717 243.345 63.185C243.998 63.6983 244.523 64.3283 244.92 65.075C245.34 65.8217 245.55 66.7317 245.55 67.805Z" fill="white"/>
<path d="M130.31 16.0714C130.31 20.3537 128.229 24.2662 126.105 27.1383C125.047 28.5688 123.988 29.7273 123.194 30.5277C122.797 30.9277 122.467 31.2375 122.237 31.4465C122.226 31.4568 122.215 31.4669 122.204 31.4767C122.193 31.4669 122.182 31.4568 122.171 31.4465C121.941 31.2375 121.611 30.9277 121.214 30.5277C120.42 29.7273 119.361 28.5688 118.303 27.1383C116.178 24.2662 114.098 20.3537 114.098 16.0714C114.098 11.7892 116.178 7.87662 118.303 5.00457C119.361 3.57406 120.42 2.41554 121.214 1.61511C121.611 1.21516 121.941 0.905318 122.171 0.696356C122.182 0.686033 122.193 0.675956 122.204 0.666128C122.215 0.675956 122.226 0.686033 122.237 0.696356C122.467 0.905318 122.797 1.21516 123.194 1.61511C123.988 2.41554 125.047 3.57406 126.105 5.00457C128.229 7.87662 130.31 11.7892 130.31 16.0714Z" stroke="white"/>
<path d="M118.111 14.3825C120.808 17.4603 121.842 21.9167 122.188 25.6738C122.36 27.5432 122.36 29.2172 122.316 30.4237C122.294 31.0265 122.262 31.5114 122.235 31.8441C122.232 31.8774 122.23 31.9091 122.227 31.9393C122.201 31.9422 122.173 31.9452 122.144 31.9483C121.852 31.979 121.427 32.0161 120.899 32.041C119.842 32.0907 118.375 32.0912 116.737 31.8948C113.445 31.5001 109.54 30.3192 106.844 27.2414C104.147 24.1635 103.112 19.7071 102.766 15.95C102.594 14.0807 102.594 12.4066 102.638 11.2002C102.66 10.5974 102.692 10.1125 102.719 9.77972C102.722 9.74647 102.725 9.71475 102.727 9.68458C102.754 9.68166 102.781 9.67866 102.81 9.67559C103.102 9.64488 103.527 9.60778 104.055 9.58291C105.112 9.53315 106.579 9.53263 108.217 9.72905C111.509 10.1238 115.414 11.3047 118.111 14.3825Z" stroke="white"/>
<path d="M126.686 14.3825C123.989 17.4603 122.955 21.9167 122.609 25.6738C122.437 27.5432 122.437 29.2172 122.481 30.4237C122.503 31.0265 122.535 31.5114 122.562 31.8441C122.565 31.8774 122.567 31.9091 122.57 31.9393C122.596 31.9422 122.624 31.9452 122.653 31.9483C122.945 31.979 123.37 32.0161 123.898 32.041C124.955 32.0907 126.422 32.0912 128.06 31.8948C131.352 31.5001 135.257 30.3192 137.953 27.2414C140.65 24.1635 141.685 19.7071 142.031 15.95C142.203 14.0807 142.203 12.4066 142.159 11.2002C142.137 10.5974 142.105 10.1125 142.078 9.77972C142.075 9.74647 142.072 9.71475 142.07 9.68458C142.043 9.68166 142.016 9.67866 141.987 9.67559C141.695 9.64488 141.27 9.60778 140.742 9.58291C139.685 9.53315 138.218 9.53263 136.58 9.72905C133.288 10.1238 129.383 11.3047 126.686 14.3825Z" stroke="white"/>
<path d="M82.9287 20.4287H2.57153" stroke="white"/>
<path d="M241.857 20.4287L159.714 20.4287" stroke="white"/>
</svg>
